<svg xmlns="http://www.w3.org/2000/svg" width="60" height="38" viewBox="0 0 60 38" id="burger">
  <path fill="#7e7778" d="M56 9.52V7.24A7.251 7.251 0 0 0 48.76 0H11.24A7.251 7.251 0 0 0 4 7.24v2.28A9 9 0 0 0 0 17v4a9 9 0 0 0 4 7.48v2.26A7.268 7.268 0 0 0 11.24 38h37.52A7.268 7.268 0 0 0 56 30.74v-2.26A9 9 0 0 0 60 21v-4a9 9 0 0 0-4-7.48zM8 7.24A3.252 3.252 0 0 1 11.24 4h37.52A3.252 3.252 0 0 1 52 7.24v.82A8.141 8.141 0 0 0 51 8H9a8.141 8.141 0 0 0-1 .06v-.82zm44 23.5A3.256 3.256 0 0 1 48.76 34H11.24A3.256 3.256 0 0 1 8 30.74v-.8A8.141 8.141 0 0 0 9 30h42a8.141 8.141 0 0 0 1-.06v.8zM56 21a5.034 5.034 0 0 1-4 4.9 5.468 5.468 0 0 1-1 .1H9a5.468 5.468 0 0 1-1-.1A5.034 5.034 0 0 1 4 21v-4a5 5 0 0 1 4-4.9 5.468 5.468 0 0 1 1-.1h42a5.468 5.468 0 0 1 1 .1 5 5 0 0 1 4 4.9v4zm-10.676 1.993a6.845 6.845 0 0 1-5.281-2.615c-.921-.96-1.371-1.385-2.395-1.385s-1.468.424-2.387 1.384a6.627 6.627 0 0 1-10.551 0c-.919-.96-1.368-1.384-2.387-1.384s-1.467.424-2.385 1.383a6.626 6.626 0 0 1-10.551 0c-.919-.959-1.368-1.383-2.387-1.383a2 2 0 0 1 0-4 6.826 6.826 0 0 1 5.275 2.616c.919.96 1.369 1.384 2.388 1.384s1.467-.424 2.386-1.383a6.625 6.625 0 0 1 10.55 0c.919.959 1.367 1.383 2.385 1.383s1.469-.424 2.388-1.384a6.635 6.635 0 0 1 10.558 0c.921.96 1.371 1.385 2.394 1.385s1.474-.425 2.395-1.385A6.844 6.844 0 0 1 53 14.993a2 2 0 0 1 0 4c-1.023 0-1.474.425-2.395 1.385a6.842 6.842 0 0 1-5.281 2.615z" style="fill-rule:evenodd"></path>
</svg>
