<svg xmlns="http://www.w3.org/2000/svg" enable-background="new 0 0 24 24" viewBox="0 0 24 24" id="chat">
  <path id="CHAT_5_" d="M4,21c-0.3,0-0.5-0.1-0.7-0.3C3.1,20.5,3,20.1,3,19.8l0.8-4C3.3,14.6,3,13.3,3,12c0-5,4-9,9-9c5,0,9,4,9,9s-4,9-9,9c-1.3,0-2.6-0.3-3.8-0.8l-4,0.8C4.1,21,4.1,21,4,21z M8.4,18.1c0.2,0,0.3,0,0.5,0.1c1,0.5,2.1,0.8,3.2,0.8c3.9,0,7-3.1,7-7s-3.1-7-7-7c-3.9,0-7,3.1-7,7c0,1.1,0.3,2.2,0.8,3.2c0.1,0.1,0.1,0.3,0.1,0.5c0,0.1,0,0.1,0,0.2l-0.6,2.9l2.9-0.6C8.2,18.1,8.3,18.1,8.4,18.1z M8,11c-0.6,0-1,0.4-1,1s0.4,1,1,1s1-0.4,1-1S8.6,11,8,11L8,11z M16,11c-0.6,0-1,0.4-1,1s0.4,1,1,1s1-0.4,1-1S16.6,11,16,11L16,11z M12,11c-0.6,0-1,0.4-1,1s0.4,1,1,1s1-0.4,1-1S12.6,11,12,11L12,11z"></path>
</svg>
